# xmcd
#
# Track frame offsets:
#	150
#	19948
#	37163
#	56558
#	73803
#	89258
#	106123
#	123440
#	141228
#	158133
#	174658
#	186618
#	202985
#	222745
#	237330
#
# Disc length: 3379
#
# Revision: 1
# Processed by: cddbd v1.5.2PL0 Copyright (c) Steve Scherf et al.
# Submitted via: kJams Pro (development) 1.0patch48
#
DISCID=e60d310f
DTITLE=Various Artist - MM6012
DYEAR=1993
DGENRE=Country
TTITLE0=Trisha Yearwood - Walkaway Joe
TTITLE1=Reba McIntire - If I Had Only Known
TTITLE2=Tanya Tucker - Two Sparrows in a Hurricane
TTITLE3=Michelle Wright - He Would Be Sixteen
TTITLE4=Reba McIntire - Take it Back
TTITLE5=Vince Gill - Don't Let Our Love Keep Slipping
TTITLE6=Restless Heart - When She Cries
TTITLE7=Doug Stone - Too Busy Being in Love
TTITLE8=Brooks and Dunn - Lost and Found
TTITLE9=Billy Ray Cyrus - Where'm I Gonna Live
TTITLE10=Collin Raye - I Want You Bad and That Ain't Good
TTITLE11=Travis Tritt - Can I Trust You With My Heart
TTITLE12=Wynonna - My Strongest Weakness
TTITLE13=Suzy Bogguss - Drive South
TTITLE14=Holly Dunn - Golden Years
EXTD=
EXTT0=
EXTT1=
EXTT2=
EXTT3=
EXTT4=
EXTT5=
EXTT6=
EXTT7=
EXTT8=
EXTT9=
EXTT10=
EXTT11=
EXTT12=
EXTT13=
EXTT14=
PLAYORDER=
